<?xml version="1.0" encoding="UTF-8" standalone="no" ?>
<svg xmlns="http://www.w3.org/2000/svg" xmlns:xlink="http://www.w3.org/1999/xlink" version="1.1" width="1080" height="1080" viewBox="0 0 1080 1080" xml:space="preserve">
<desc>Created with Fabric.js 5.2.4</desc>
<defs>
</defs>
<g transform="matrix(1 0 0 1 540 540)" id="93fb8078-ca84-4774-be94-92facf0f3f50"  >
</g>
<g transform="matrix(1 0 0 1 540 540)" id="fec8e779-df15-4065-9441-b4b8d72db602"  >
<rect style="stroke: none; stroke-width: 1; stroke-dasharray: none; stroke-linecap: butt; stroke-dashoffset: 0; stroke-linejoin: miter; stroke-miterlimit: 4; fill: rgb(255,255,255); fill-rule: nonzero; opacity: 1; visibility: hidden;" vector-effect="non-scaling-stroke"  x="-540" y="-540" rx="0" ry="0" width="1080" height="1080" />
</g>
<g transform="matrix(0.9 0 0 0.9 540 540)" id="bb08864d-4d80-42eb-97ba-1fe949a795eb"  >
<rect style="stroke: none; stroke-width: 1; stroke-dasharray: none; stroke-linecap: butt; stroke-dashoffset: 0; stroke-linejoin: miter; stroke-miterlimit: 4; fill: rgb(0,0,0); fill-rule: nonzero; opacity: 1; visibility: hidden;" vector-effect="non-scaling-stroke"  x="-600" y="-314" rx="0" ry="0" width="1200" height="628" />
</g>
<g transform="matrix(2.18 0 0 2.18 367.98 471.51)"  >
<polyline style="stroke: rgb(255,255,255); stroke-width: 7; stroke-dasharray: none; stroke-linecap: butt; stroke-dashoffset: 0; stroke-linejoin: miter; stroke-miterlimit: 4; fill: none; fill-rule: nonzero; opacity: 1;" vector-effect="non-scaling-stroke"  points="-80,50 0,-50 80,50 " />
</g>
<g transform="matrix(2.76 0 0 2.76 365.45 482.85)"  >
<rect style="stroke: rgb(255,255,255); stroke-width: 1; stroke-dasharray: none; stroke-linecap: butt; stroke-dashoffset: 0; stroke-linejoin: miter; stroke-miterlimit: 4; fill: rgb(155,155,155); fill-rule: nonzero; opacity: 1;" vector-effect="non-scaling-stroke"  x="-10" y="-10" rx="0" ry="0" width="20" height="20" />
</g>
<g transform="matrix(1.72 0 0 1.72 644.17 464.83)"  >
<polyline style="stroke: rgb(255,255,255); stroke-width: 8; stroke-dasharray: none; stroke-linecap: butt; stroke-dashoffset: 0; stroke-linejoin: miter; stroke-miterlimit: 4; fill: none; fill-rule: nonzero; opacity: 1;" vector-effect="non-scaling-stroke"  points="-80,50 0,-50 80,50 " />
</g>
<g transform="matrix(2.76 0 0 2.76 365.41 482.85)"  >
<line style="stroke: rgb(255,255,255); stroke-width: 2; stroke-dasharray: none; stroke-linecap: butt; stroke-dashoffset: 0; stroke-linejoin: miter; stroke-miterlimit: 4; fill: rgb(0,0,0); fill-rule: nonzero; opacity: 1;" vector-effect="non-scaling-stroke"  x1="0" y1="-10" x2="0" y2="10" />
</g>
<g transform="matrix(2.76 0 0 2.76 365.45 482.79)"  >
<line style="stroke: rgb(255,255,255); stroke-width: 2; stroke-dasharray: none; stroke-linecap: butt; stroke-dashoffset: 0; stroke-linejoin: miter; stroke-miterlimit: 4; fill: rgb(0,0,0); fill-rule: nonzero; opacity: 1;" vector-effect="non-scaling-stroke"  x1="-10" y1="0" x2="10" y2="0" />
</g>
<g transform="matrix(2.36 0 0 2.36 646.68 486.63)"  >
<rect style="stroke: rgb(255,255,255); stroke-width: 1; stroke-dasharray: none; stroke-linecap: butt; stroke-dashoffset: 0; stroke-linejoin: miter; stroke-miterlimit: 4; fill: rgb(143,143,143); fill-rule: nonzero; opacity: 1;" vector-effect="non-scaling-stroke"  x="-10" y="-10" rx="0" ry="0" width="20" height="20" />
</g>
<g transform="matrix(2.36 0 0 2.36 646.62 488.4)"  >
<line style="stroke: rgb(255,255,255); stroke-width: 2; stroke-dasharray: none; stroke-linecap: butt; stroke-dashoffset: 0; stroke-linejoin: miter; stroke-miterlimit: 4; fill: rgb(0,0,0); fill-rule: nonzero; opacity: 1;" vector-effect="non-scaling-stroke"  x1="0" y1="-10" x2="0" y2="10" />
</g>
<g transform="matrix(2.36 0 0 2.36 646.68 488.34)"  >
<line style="stroke: rgb(255,255,255); stroke-width: 2; stroke-dasharray: none; stroke-linecap: butt; stroke-dashoffset: 0; stroke-linejoin: miter; stroke-miterlimit: 4; fill: rgb(0,0,0); fill-rule: nonzero; opacity: 1;" vector-effect="non-scaling-stroke"  x1="-10" y1="0" x2="10" y2="0" />
</g>
<g transform="matrix(2.67 0 0 2.67 529.21 347.18)"  >
<path style="stroke: rgb(255,255,255); stroke-width: 2; stroke-dasharray: none; stroke-linecap: butt; stroke-dashoffset: 0; stroke-linejoin: miter; stroke-miterlimit: 4; fill: none; fill-rule: nonzero; opacity: 1;" vector-effect="non-scaling-stroke"  transform=" translate(-290, -176.25)" d="M 280 180 Q 290 170 300 180" stroke-linecap="round" />
</g>
<g transform="matrix(2.67 0 0 2.67 573.2 347.18)"  >
<path style="stroke: rgb(255,255,255); stroke-width: 2; stroke-dasharray: none; stroke-linecap: butt; stroke-dashoffset: 0; stroke-linejoin: miter; stroke-miterlimit: 4; fill: none; fill-rule: nonzero; opacity: 1;" vector-effect="non-scaling-stroke"  transform=" translate(-320, -176.25)" d="M 310 180 Q 320 170 330 180" stroke-linecap="round" />
</g>
<g transform="matrix(3.63 0 0 3.63 533.64 636.58)" style=""  >
		<text xml:space="preserve" font-family="Arial" font-size="24" font-style="normal" font-weight="bold" style="stroke: rgb(255,255,255); stroke-width: 3; stroke-dasharray: none; stroke-linecap: butt; stroke-dashoffset: 0; stroke-linejoin: miter; stroke-miterlimit: 4; fill: rgb(255,255,255); fill-rule: nonzero; opacity: 1; white-space: pre;" ><tspan x="-142" y="7.54" >HOUSEHOLD MANAGER</tspan></text>
</g>
<g transform="matrix(2.86 0 0 2.86 440.48 736.28)" style=""  >
		<text xml:space="preserve" font-family="Arial" font-size="16" font-style="normal" font-weight="normal" style="stroke: rgb(170,170,170); stroke-width: 0; stroke-dasharray: none; stroke-linecap: butt; stroke-dashoffset: 0; stroke-linejoin: miter; stroke-miterlimit: 4; fill: rgb(213,213,213); fill-rule: nonzero; opacity: 1; white-space: pre;" ><tspan x="-148.31" y="5.03" >RUN YOUR HOUSEHOLD EFFICIENTLY</tspan></text>
</g>
<g transform="matrix(2.49 0 0 2.49 499.56 417.75)"  >
<path style="stroke: rgb(255,255,255); stroke-width: 2; stroke-dasharray: none; stroke-linecap: butt; stroke-dashoffset: 0; stroke-linejoin: miter; stroke-miterlimit: 4; fill: none; fill-rule: nonzero; opacity: 1;" vector-effect="non-scaling-stroke"  transform=" translate(-290, -176.25)" d="M 280 180 Q 290 170 300 180" stroke-linecap="round" />
</g>
<g transform="matrix(2.49 0 0 2.49 540.98 417.75)"  >
<path style="stroke: rgb(255,255,255); stroke-width: 2; stroke-dasharray: none; stroke-linecap: butt; stroke-dashoffset: 0; stroke-linejoin: miter; stroke-miterlimit: 4; fill: none; fill-rule: nonzero; opacity: 1;" vector-effect="non-scaling-stroke"  transform=" translate(-320, -176.25)" d="M 310 180 Q 320 170 330 180" stroke-linecap="round" />
</g>
<g transform="matrix(1.41 0 0 1.41 403.19 341.3)"  >
<path style="stroke: rgb(255,255,255); stroke-width: 2; stroke-dasharray: none; stroke-linecap: butt; stroke-dashoffset: 0; stroke-linejoin: miter; stroke-miterlimit: 4; fill: none; fill-rule: nonzero; opacity: 1;" vector-effect="non-scaling-stroke"  transform=" translate(-290, -176.25)" d="M 280 180 Q 290 170 300 180" stroke-linecap="round" />
</g>
<g transform="matrix(1.41 0 0 1.41 426.9 341.3)"  >
<path style="stroke: rgb(255,255,255); stroke-width: 2; stroke-dasharray: none; stroke-linecap: butt; stroke-dashoffset: 0; stroke-linejoin: miter; stroke-miterlimit: 4; fill: none; fill-rule: nonzero; opacity: 1;" vector-effect="non-scaling-stroke"  transform=" translate(-320, -176.25)" d="M 310 180 Q 320 170 330 180" stroke-linecap="round" />
</g>
<g transform="matrix(0 0 0 0 264.74 2)"  >
<polyline style="stroke: rgb(0,0,0); stroke-width: 4; stroke-dasharray: none; stroke-linecap: butt; stroke-dashoffset: 0; stroke-linejoin: miter; stroke-miterlimit: 4; fill: none; fill-rule: nonzero; opacity: 1;" vector-effect="non-scaling-stroke"  points="-80,50 0,-50 80,50 " />
</g>
<g transform="matrix(0 0 0 0 264.74 2)"  >
<polyline style="stroke: rgb(0,0,0); stroke-width: 4; stroke-dasharray: none; stroke-linecap: butt; stroke-dashoffset: 0; stroke-linejoin: miter; stroke-miterlimit: 4; fill: none; fill-rule: nonzero; opacity: 1;" vector-effect="non-scaling-stroke"  points="-80,50 0,-50 80,50 " />
</g>
<g transform="matrix(0 0 0 0 264.73 0.5)"  >
<rect style="stroke: none; stroke-width: 1; stroke-dasharray: none; stroke-linecap: butt; stroke-dashoffset: 0; stroke-linejoin: miter; stroke-miterlimit: 4; fill: rgb(0,0,0); fill-rule: nonzero; opacity: 1;" vector-effect="non-scaling-stroke"  x="-10" y="-10" rx="0" ry="0" width="20" height="20" />
</g>
<g transform="matrix(0 0 0 0 264.73 1)"  >
<line style="stroke: rgb(255,255,255); stroke-width: 2; stroke-dasharray: none; stroke-linecap: butt; stroke-dashoffset: 0; stroke-linejoin: miter; stroke-miterlimit: 4; fill: rgb(0,0,0); fill-rule: nonzero; opacity: 1;" vector-effect="non-scaling-stroke"  x1="0" y1="-10" x2="0" y2="10" />
</g>
<g transform="matrix(0 0 0 0 264.73 1)"  >
<line style="stroke: rgb(255,255,255); stroke-width: 2; stroke-dasharray: none; stroke-linecap: butt; stroke-dashoffset: 0; stroke-linejoin: miter; stroke-miterlimit: 4; fill: rgb(0,0,0); fill-rule: nonzero; opacity: 1;" vector-effect="non-scaling-stroke"  x1="-10" y1="0" x2="10" y2="0" />
</g>
<g transform="matrix(0 0 0 0 264.73 0.5)"  >
<rect style="stroke: none; stroke-width: 1; stroke-dasharray: none; stroke-linecap: butt; stroke-dashoffset: 0; stroke-linejoin: miter; stroke-miterlimit: 4; fill: rgb(0,0,0); fill-rule: nonzero; opacity: 1;" vector-effect="non-scaling-stroke"  x="-10" y="-10" rx="0" ry="0" width="20" height="20" />
</g>
<g transform="matrix(0 0 0 0 264.73 1)"  >
<line style="stroke: rgb(255,255,255); stroke-width: 2; stroke-dasharray: none; stroke-linecap: butt; stroke-dashoffset: 0; stroke-linejoin: miter; stroke-miterlimit: 4; fill: rgb(0,0,0); fill-rule: nonzero; opacity: 1;" vector-effect="non-scaling-stroke"  x1="0" y1="-10" x2="0" y2="10" />
</g>
<g transform="matrix(0 0 0 0 264.73 1)"  >
<line style="stroke: rgb(255,255,255); stroke-width: 2; stroke-dasharray: none; stroke-linecap: butt; stroke-dashoffset: 0; stroke-linejoin: miter; stroke-miterlimit: 4; fill: rgb(0,0,0); fill-rule: nonzero; opacity: 1;" vector-effect="non-scaling-stroke"  x1="-10" y1="0" x2="10" y2="0" />
</g>
<g transform="matrix(0 0 0 0 264.73 1)"  >
<path style="stroke: rgb(0,0,0); stroke-width: 2; stroke-dasharray: none; stroke-linecap: butt; stroke-dashoffset: 0; stroke-linejoin: miter; stroke-miterlimit: 4; fill: none; fill-rule: nonzero; opacity: 1;" vector-effect="non-scaling-stroke"  transform=" translate(-290, -176.25)" d="M 280 180 Q 290 170 300 180" stroke-linecap="round" />
</g>
<g transform="matrix(0 0 0 0 264.73 1)"  >
<path style="stroke: rgb(0,0,0); stroke-width: 2; stroke-dasharray: none; stroke-linecap: butt; stroke-dashoffset: 0; stroke-linejoin: miter; stroke-miterlimit: 4; fill: none; fill-rule: nonzero; opacity: 1;" vector-effect="non-scaling-stroke"  transform=" translate(-320, -176.25)" d="M 310 180 Q 320 170 330 180" stroke-linecap="round" />
</g>
<g transform="matrix(0 0 0 0 264.73 0.5)" style=""  >
		<text xml:space="preserve" font-family="Arial" font-size="24" font-style="normal" font-weight="bold" style="stroke: none; stroke-width: 1; stroke-dasharray: none; stroke-linecap: butt; stroke-dashoffset: 0; stroke-linejoin: miter; stroke-miterlimit: 4; fill: rgb(0,0,0); fill-rule: nonzero; opacity: 1; white-space: pre;" ><tspan x="-142" y="7.54" >HOUSEHOLD MANAGER</tspan></text>
</g>
<g transform="matrix(0 0 0 0 264.73 0.5)" style=""  >
		<text xml:space="preserve" font-family="Arial" font-size="16" font-style="normal" font-weight="normal" style="stroke: none; stroke-width: 1; stroke-dasharray: none; stroke-linecap: butt; stroke-dashoffset: 0; stroke-linejoin: miter; stroke-miterlimit: 4; fill: rgb(128,128,128); fill-rule: nonzero; opacity: 1; white-space: pre;" ><tspan x="-148.31" y="5.03" >RUN YOUR HOUSEHOLD EFFICIENTLY</tspan></text>
</g>
</svg>